PathFileType	4	(x/y/z)	TRC_MarkerData\Calibration\Standing_Cal_SL_Passive0001.trc
DataRate	CameraRate	NumFrames	NumMarkers	Units	OrigDataRate	OrigDataStartFrame	OrigNumFrames
240	240	10	50	mm	240	743	849
Frame#	Time	R_AC			L_AC			HEAD			STERN			C7			L_IC			R_IC			L_ASIS			R_ASIS			L_GT			R_GT			L_PSIS			R_PSIS			SACRAL			L_LAT_KNEE			L_MED_KNEE			R_LAT_KNEE			R_MED_KNEE			L_LAT_ANK			L_MED_ANK			R_LAT_ANK			R_MED_ANK			L_THIGH_PROX_POST			L_THIGH_PROX_ANT			L_THIGH_DIST_ANT			L_THIGH_DIST_POST			R_THIGH_PROX_POST			R_THIGH_PROX_ANT			R_THIGH_DIST_ANT			R_THIGH_DIST_POST			L_SHANK_PROX_POST			L_SHANK_PROX_ANT			L_SHANK_DIST_ANT			L_SHANK_DIST_POST			R_SHANK_PROX_POST			R_SHANK_PROX_ANT			R_SHANK_DIST_ANT			R_SHANK_DIST_POST			L_HEEL_LAT			L_HEEL_SUP			L_HEEL_MED			R_HEEL_LAT			R_HEEL_SUP			R_HEEL_MED			L_1ST_MET			L_5TH_MET			L_TOE			R_1ST_MET			R_5TH_MET			R_TOE			
		X1	Y1	Z1	X2	Y2	Z2	X3	Y3	Z3	X4	Y4	Z4	X5	Y5	Z5	X6	Y6	Z6	X7	Y7	Z7	X8	Y8	Z8	X9	Y9	Z9	X10	Y10	Z10	X11	Y11	Z11	X12	Y12	Z12	X13	Y13	Z13	X14	Y14	Z14	X15	Y15	Z15	X16	Y16	Z16	X17	Y17	Z17	X18	Y18	Z18	X19	Y19	Z19	X20	Y20	Z20	X21	Y21	Z21	X22	Y22	Z22	X23	Y23	Z23	X24	Y24	Z24	X25	Y25	Z25	X26	Y26	Z26	X27	Y27	Z27	X28	Y28	Z28	X29	Y29	Z29	X30	Y30	Z30	X31	Y31	Z31	X32	Y32	Z32	X33	Y33	Z33	X34	Y34	Z34	X35	Y35	Z35	X36	Y36	Z36	X37	Y37	Z37	X38	Y38	Z38	X39	Y39	Z39	X40	Y40	Z40	X41	Y41	Z41	X42	Y42	Z42	X43	Y43	Z43	X44	Y44	Z44	X45	Y45	Z45	X46	Y46	Z46	X47	Y47	Z47	X48	Y48	Z48	X49	Y49	Z49	X50	Y50	Z50	

743	3.0953	366.04	1553.4	471.47	388.46	1573.5	167.87	427.21	1815.9	329.42	467.6	1496.3	322.67	324.61	1576.8	319.05	446.62	1108.8	152.46	442.39	1118.9	472.99	506.57	1027	177.06	513.25	1029.4	448.23	426.61	939.39	115.26	430.16	952.44	503.67	324.65	1081.3	263.06	324.05	1087.2	355.95	310.17	1053.9	308.43	403.94	535.69	150.41	376.06	521.88	284.1	393.65	539.95	478.87	374.74	547.8	347.24	381.98	114.28	147.37	386.12	110.11	218.7	373.88	107.21	450.77	382.91	127.21	360.58	404.83	767.61	135.74	466.05	760.93	157.01	463.16	687.2	169.06	400.55	692.62	146.66	370.21	748.48	489.64	437.85	748.68	497.43	432.09	673.9	489.17	365.15	673.83	481.29	388.07	449.77	148.2	431.8	459.6	173.32	421.58	401.08	175.12	364.36	390.33	167.03	326.61	371.08	484.09	395.42	375.76	484.61	394.4	299.95	472.64	323.96	298.19	469.29	302.31	41.821	155.25	297.57	69.89	189.09	309.69	40.532	221.95	306.7	38.506	420.35	303.55	68.717	388.16	319.82	44.892	354.41	517.46	53.79	220.01	479.14	40.504	117.64	575.39	62.839	184.08	528.84	58.145	371.28	488.01	39.596	475.32	579.13	57.559	422.88
744	3.0995	366.07	1553.4	471.42	388.47	1573.5	167.86	427.21	1815.9	329.47	467.65	1496.3	322.64	324.68	1576.8	319.03	446.67	1108.8	152.4	442.42	1118.9	472.93	506.61	1027	177.01	513.29	1029.4	448.19	426.65	939.38	115.21	430.19	952.45	503.61	324.69	1081.3	262.99	324.09	1087.2	355.89	310.22	1053.9	308.37	403.95	535.68	150.39	376.06	521.88	284.08	393.65	539.96	478.83	374.75	547.81	347.19	381.98	114.28	147.37	386.12	110.11	218.69	373.88	107.22	450.76	382.92	127.21	360.57	404.86	767.6	135.71	466.08	760.92	156.98	463.18	687.19	169.04	400.57	692.62	146.63	370.23	748.49	489.58	437.87	748.68	497.38	432.11	673.91	489.13	365.16	673.84	481.24	388.07	449.77	148.18	431.81	459.6	173.31	421.58	401.08	175.1	364.37	390.33	167.02	326.61	371.09	484.06	395.42	375.78	484.59	394.41	299.96	472.61	323.96	298.21	469.27	302.31	41.819	155.25	297.57	69.889	189.09	309.69	40.533	221.95	306.71	38.516	420.35	303.56	68.724	388.16	319.82	44.895	354.41	517.46	53.79	220.01	479.14	40.502	117.64	575.39	62.84	184.08	528.84	58.14	371.28	488.01	39.598	475.32	579.13	57.553	422.87
745	3.1037	366.11	1553.4	471.38	388.49	1573.5	167.86	427.21	1815.9	329.51	467.7	1496.3	322.61	324.75	1576.8	319.01	446.73	1108.8	152.35	442.45	1119	472.87	506.66	1026.9	176.96	513.33	1029.4	448.15	426.69	939.36	115.17	430.22	952.46	503.56	324.74	1081.3	262.93	324.13	1087.2	355.82	310.26	1053.9	308.31	403.96	535.68	150.37	376.06	521.89	284.07	393.65	539.97	478.8	374.76	547.82	347.15	381.98	114.28	147.37	386.12	110.11	218.69	373.89	107.23	450.75	382.92	127.21	360.56	404.88	767.59	135.67	466.1	760.92	156.95	463.2	687.18	169.01	400.58	692.61	146.6	370.25	748.5	489.52	437.89	748.69	497.34	432.13	673.92	489.09	365.16	673.85	481.2	388.07	449.77	148.17	431.81	459.6	173.29	421.58	401.08	175.08	364.37	390.32	167	326.62	371.1	484.03	395.42	375.79	484.56	394.41	299.97	472.59	323.96	298.24	469.25	302.31	41.817	155.25	297.57	69.888	189.09	309.69	40.535	221.95	306.71	38.527	420.34	303.56	68.732	388.15	319.83	44.899	354.41	517.46	53.79	220.01	479.14	40.501	117.64	575.39	62.84	184.08	528.85	58.135	371.28	488.01	39.6	475.31	579.14	57.547	422.87
746	3.1078	366.14	1553.3	471.33	388.49	1573.6	167.85	427.2	1815.9	329.56	467.75	1496.3	322.58	324.82	1576.8	318.98	446.78	1108.8	152.29	442.48	1119	472.81	506.71	1026.9	176.9	513.37	1029.4	448.1	426.74	939.34	115.12	430.25	952.46	503.51	324.78	1081.3	262.86	324.17	1087.2	355.76	310.31	1053.9	308.25	403.96	535.68	150.35	376.06	521.89	284.05	393.65	539.97	478.76	374.78	547.82	347.11	381.98	114.27	147.37	386.12	110.11	218.69	373.9	107.24	450.74	382.93	127.22	360.55	404.91	767.57	135.64	466.13	760.91	156.92	463.22	687.16	168.98	400.6	692.6	146.56	370.27	748.51	489.47	437.91	748.69	497.29	432.15	673.92	489.05	365.17	673.86	481.15	388.08	449.77	148.15	431.82	459.6	173.28	421.59	401.07	175.06	364.37	390.32	166.99	326.62	371.11	484	395.43	375.81	484.54	394.41	299.99	472.56	323.96	298.26	469.24	302.31	41.816	155.25	297.57	69.888	189.09	309.69	40.536	221.94	306.71	38.538	420.34	303.56	68.739	388.15	319.83	44.902	354.4	517.46	53.79	220.01	479.14	40.5	117.64	575.39	62.841	184.08	528.85	58.129	371.27	488.01	39.602	475.31	579.14	57.54	422.87
747	3.112	366.18	1553.3	471.28	388.5	1573.6	167.84	427.2	1815.9	329.6	467.8	1496.3	322.55	324.89	1576.8	318.95	446.83	1108.8	152.24	442.52	1119	472.75	506.76	1026.9	176.85	513.41	1029.4	448.06	426.78	939.32	115.08	430.28	952.47	503.46	324.83	1081.3	262.79	324.22	1087.2	355.7	310.36	1053.9	308.19	403.97	535.68	150.33	376.06	521.89	284.03	393.65	539.98	478.72	374.8	547.83	347.06	381.98	114.27	147.36	386.12	110.11	218.68	373.91	107.26	450.73	382.94	127.22	360.55	404.94	767.55	135.6	466.16	760.9	156.88	463.24	687.15	168.95	400.61	692.6	146.53	370.29	748.52	489.41	437.94	748.7	497.24	432.17	673.93	489.01	365.18	673.87	481.1	388.08	449.76	148.14	431.83	459.59	173.26	421.59	401.07	175.05	364.38	390.32	166.97	326.62	371.12	483.97	395.43	375.82	484.51	394.42	300	472.53	323.96	298.29	469.22	302.31	41.814	155.24	297.57	69.887	189.09	309.69	40.538	221.94	306.71	38.549	420.34	303.57	68.748	388.14	319.83	44.906	354.4	517.45	53.79	220.01	479.14	40.498	117.64	575.39	62.841	184.08	528.86	58.123	371.27	488.01	39.605	475.31	579.15	57.533	422.87
748	3.1162	366.22	1553.3	471.23	388.5	1573.6	167.83	427.2	1815.9	329.63	467.85	1496.3	322.52	324.95	1576.8	318.92	446.88	1108.8	152.18	442.55	1119	472.69	506.81	1026.9	176.8	513.45	1029.4	448.01	426.83	939.3	115.04	430.31	952.48	503.41	324.88	1081.3	262.73	324.26	1087.2	355.63	310.41	1053.9	308.13	403.98	535.68	150.3	376.07	521.89	284.01	393.66	539.99	478.68	374.81	547.84	347.02	381.98	114.27	147.36	386.12	110.11	218.68	373.91	107.27	450.72	382.95	127.23	360.54	404.96	767.54	135.56	466.18	760.89	156.85	463.27	687.14	168.92	400.63	692.59	146.5	370.31	748.53	489.35	437.96	748.7	497.19	432.19	673.93	488.97	365.18	673.88	481.05	388.09	449.76	148.12	431.83	459.59	173.24	421.6	401.07	175.03	364.38	390.32	166.96	326.62	371.13	483.93	395.44	375.84	484.48	394.42	300.02	472.51	323.96	298.32	469.2	302.31	41.813	155.24	297.57	69.886	189.08	309.69	40.54	221.94	306.72	38.56	420.33	303.57	68.756	388.14	319.84	44.911	354.4	517.45	53.79	220.01	479.14	40.497	117.64	575.39	62.841	184.08	528.86	58.116	371.26	488.02	39.607	475.31	579.15	57.526	422.87
749	3.1203	366.26	1553.3	471.18	388.5	1573.6	167.82	427.19	1815.9	329.67	467.91	1496.3	322.49	325.02	1576.8	318.89	446.93	1108.8	152.12	442.58	1119	472.64	506.86	1026.9	176.74	513.49	1029.4	447.97	426.88	939.28	114.99	430.35	952.49	503.36	324.92	1081.3	262.66	324.3	1087.2	355.57	310.46	1053.9	308.07	404	535.67	150.28	376.07	521.9	283.99	393.66	540	478.64	374.83	547.85	346.97	381.99	114.26	147.36	386.12	110.11	218.67	373.92	107.28	450.71	382.96	127.23	360.53	404.99	767.52	135.53	466.21	760.88	156.82	463.29	687.13	168.89	400.65	692.58	146.47	370.33	748.54	489.29	437.98	748.71	497.14	432.21	673.94	488.93	365.19	673.89	481	388.1	449.76	148.1	431.84	459.59	173.22	421.6	401.07	175.01	364.39	390.32	166.94	326.63	371.15	483.9	395.44	375.85	484.46	394.43	300.03	472.48	323.96	298.34	469.18	302.31	41.812	155.24	297.57	69.885	189.08	309.69	40.541	221.94	306.72	38.571	420.33	303.57	68.764	388.13	319.84	44.915	354.39	517.45	53.79	220.01	479.14	40.496	117.64	575.39	62.841	184.08	528.87	58.11	371.26	488.02	39.609	475.3	579.16	57.519	422.86
750	3.1245	366.3	1553.3	471.12	388.5	1573.6	167.81	427.18	1815.9	329.7	467.96	1496.3	322.45	325.09	1576.8	318.85	446.99	1108.7	152.07	442.62	1119	472.58	506.91	1026.9	176.69	513.53	1029.4	447.92	426.93	939.26	114.95	430.38	952.49	503.31	324.97	1081.3	262.59	324.35	1087.2	355.51	310.51	1053.9	308.01	404.01	535.67	150.26	376.08	521.9	283.97	393.66	540.01	478.6	374.85	547.85	346.93	381.99	114.26	147.35	386.12	110.11	218.67	373.93	107.3	450.7	382.97	127.24	360.51	405.03	767.5	135.49	466.25	760.87	156.79	463.32	687.12	168.86	400.67	692.58	146.44	370.35	748.55	489.24	438.01	748.71	497.09	432.23	673.95	488.89	365.2	673.9	480.95	388.11	449.76	148.08	431.85	459.59	173.2	421.61	401.06	174.99	364.4	390.32	166.93	326.63	371.16	483.87	395.45	375.86	484.43	394.43	300.04	472.45	323.96	298.37	469.16	302.31	41.811	155.24	297.57	69.885	189.08	309.69	40.542	221.94	306.72	38.583	420.32	303.58	68.773	388.12	319.84	44.919	354.39	517.45	53.79	220.01	479.14	40.494	117.64	575.39	62.84	184.08	528.88	58.103	371.26	488.02	39.611	475.3	579.16	57.512	422.86
751	3.1287	366.34	1553.3	471.07	388.51	1573.6	167.79	427.18	1815.9	329.73	468.02	1496.3	322.42	325.16	1576.8	318.81	447.04	1108.7	152.01	442.66	1118.9	472.52	506.96	1026.9	176.64	513.57	1029.4	447.88	426.98	939.24	114.91	430.41	952.5	503.26	325.02	1081.3	262.52	324.39	1087.3	355.44	310.56	1053.9	307.95	404.02	535.67	150.23	376.09	521.9	283.94	393.67	540.02	478.56	374.87	547.86	346.89	381.99	114.26	147.35	386.12	110.11	218.67	373.94	107.31	450.69	382.97	127.24	360.5	405.06	767.48	135.45	466.28	760.86	156.75	463.34	687.11	168.83	400.7	692.57	146.41	370.38	748.55	489.18	438.03	748.72	497.04	432.25	673.95	488.84	365.21	673.92	480.9	388.12	449.75	148.07	431.87	459.58	173.18	421.62	401.06	174.97	364.41	390.32	166.91	326.64	371.17	483.84	395.45	375.88	484.41	394.44	300.06	472.42	323.96	298.4	469.14	302.31	41.81	155.24	297.57	69.884	189.08	309.69	40.543	221.94	306.72	38.595	420.32	303.58	68.782	388.12	319.84	44.924	354.39	517.45	53.79	220.01	479.14	40.493	117.63	575.39	62.84	184.08	528.88	58.095	371.25	488.02	39.614	475.3	579.17	57.504	422.86
752	3.1329	366.38	1553.3	471.01	388.52	1573.6	167.78	427.17	1816	329.75	468.08	1496.3	322.38	325.22	1576.8	318.77	447.1	1108.7	151.96	442.69	1118.9	472.46	507.01	1026.9	176.59	513.62	1029.4	447.83	427.03	939.22	114.86	430.44	952.51	503.21	325.07	1081.4	262.45	324.44	1087.3	355.38	310.61	1053.9	307.89	404.04	535.67	150.21	376.1	521.91	283.92	393.67	540.03	478.51	374.89	547.87	346.84	381.99	114.25	147.35	386.12	110.11	218.66	373.95	107.32	450.68	382.98	127.25	360.49	405.09	767.46	135.42	466.31	760.85	156.72	463.37	687.09	168.8	400.72	692.57	146.37	370.4	748.56	489.12	438.06	748.72	496.99	432.27	673.96	488.8	365.22	673.93	480.85	388.13	449.75	148.05	431.88	459.58	173.16	421.63	401.06	174.95	364.42	390.31	166.89	326.64	371.18	483.81	395.46	375.89	484.38	394.45	300.07	472.4	323.96	298.42	469.13	302.31	41.809	155.24	297.57	69.884	189.08	309.69	40.544	221.94	306.73	38.607	420.31	303.58	68.791	388.11	319.85	44.929	354.38	517.45	53.789	220	479.14	40.491	117.63	575.39	62.84	184.07	528.89	58.088	371.25	488.03	39.616	475.3	579.17	57.496	422.86
